<svg xmlns="http://www.w3.org/2000/svg" xmlns:xlink="http://www.w3.org/1999/xlink" aria-hidden="true" focusable="false" width="40px" height="40px" style="-ms-transform: rotate(360deg); -webkit-transform: rotate(360deg); transform: rotate(360deg);" preserveAspectRatio="xMidYMid meet" viewBox="0 0 256 256"><path d="M211.714 132.293l12.157-66.862A8 8 0 0 0 216 56H54.677l-4.884-26.862A15.992 15.992 0 0 0 34.051 16H16a8 8 0 0 0 0 16h18.05l27.456 151.003A27.993 27.993 0 1 0 105.293 192h53.414A27.997 27.997 0 1 0 184 176H76.495l-4.364-24h115.97a23.987 23.987 0 0 0 23.613-19.707zM92 204a12 12 0 1 1-12-12a12.013 12.013 0 0 1 12 12zm104 0a12 12 0 1 1-12-12a12.013 12.013 0 0 1 12 12zM57.586 72h148.828l-10.442 57.432a7.995 7.995 0 0 1-7.87 6.568H69.222z" fill="#626262"/></svg>